<svg width="103" height="107" viewBox="0 0 103 107" fill="none" xmlns="http://www.w3.org/2000/svg">
<g clip-path="url(#clip0_156_1452)">
<path d="M82 14.75H89.75V92.25H12.25V61.25H20V84.5H35.5V69H43.25V84.5H58.75V61.25H66.5V84.5H82V22.5H43.25V30.25H35.5V14.75H82ZM51 53.5H58.75V61.25H51V53.5ZM43.25 45.75H51V53.5H43.25V45.75ZM35.5 45.75V38H43.25V45.75H35.5ZM27.75 53.5V45.75H35.5V53.5H27.75ZM27.75 53.5H20V61.25H27.75V53.5ZM66.5 30.25H74.25V38H66.5V30.25ZM58.75 30.25H51V38H58.75V30.25ZM66.5 45.75H74.25V53.5H66.5V45.75Z" fill="white"/>
<path d="M82 14.75H89.75V92.25H12.25V61.25H20V84.5H35.5V69H43.25V84.5H58.75V61.25H66.5V84.5H82V22.5H43.25V30.25H35.5V14.75H82ZM51 53.5H58.75V61.25H51V53.5ZM43.25 45.75H51V53.5H43.25V45.75ZM35.5 45.75V38H43.25V45.75H35.5ZM27.75 53.5V45.75H35.5V53.5H27.75ZM27.75 53.5H20V61.25H27.75V53.5ZM66.5 30.25H74.25V38H66.5V30.25ZM58.75 30.25H51V38H58.75V30.25ZM66.5 45.75H74.25V53.5H66.5V45.75Z" fill="url(#paint0_linear_156_1452)"/>
<path d="M82 14.75H89.75V92.25H12.25V61.25H20V84.5H35.5V69H43.25V84.5H58.75V61.25H66.5V84.5H82V22.5H43.25V30.25H35.5V14.75H82ZM51 53.5H58.75V61.25H51V53.5ZM43.25 45.75H51V53.5H43.25V45.75ZM35.5 45.75V38H43.25V45.75H35.5ZM27.75 53.5V45.75H35.5V53.5H27.75ZM27.75 53.5H20V61.25H27.75V53.5ZM66.5 30.25H74.25V38H66.5V30.25ZM58.75 30.25H51V38H58.75V30.25ZM66.5 45.75H74.25V53.5H66.5V45.75Z" fill="url(#paint1_linear_156_1452)"/>
</g>
<g clip-path="url(#clip1_156_1452)">
<path d="M83 13.9092H90.75V93.0001H83V85.091H21H36.5H44.25H83V21.8183H44.25V29.7274H36.5V13.9092H83ZM28.75 53.4546H21V85.091L28.75 61.3637V53.4546ZM67.5 29.7274H75.25V37.6365H67.5V29.7274ZM59.75 29.7274H52V37.6365H59.75V29.7274ZM67.5 45.5455H75.25V53.4546H67.5V45.5455Z" fill="white"/>
<path d="M83 13.9092H90.75V93.0001H83V85.091H21H36.5H44.25H83V21.8183H44.25V29.7274H36.5V13.9092H83ZM28.75 53.4546H21V85.091L28.75 61.3637V53.4546ZM67.5 29.7274H75.25V37.6365H67.5V29.7274ZM59.75 29.7274H52V37.6365H59.75V29.7274ZM67.5 45.5455H75.25V53.4546H67.5V45.5455Z" fill="url(#paint2_linear_156_1452)"/>
<path d="M83 13.9092H90.75V93.0001H83V85.091H21H36.5H44.25H83V21.8183H44.25V29.7274H36.5V13.9092H83ZM28.75 53.4546H21V85.091L28.75 61.3637V53.4546ZM67.5 29.7274H75.25V37.6365H67.5V29.7274ZM59.75 29.7274H52V37.6365H59.75V29.7274ZM67.5 45.5455H75.25V53.4546H67.5V45.5455Z" fill="url(#paint3_linear_156_1452)"/>
<rect x="52" y="29.7271" width="7.75" height="7.90909" fill="white"/>
<rect x="67.5" y="29.7271" width="7.75" height="7.90909" fill="white"/>
<rect x="67.5" y="45.5454" width="7.75" height="7.90909" fill="white"/>
</g>
<defs>
<linearGradient id="paint0_linear_156_1452" x1="89.75" y1="14.75" x2="0.387411" y2="19.1742" gradientUnits="userSpaceOnUse">
<stop stop-color="#8349FF"/>
<stop offset="1" stop-color="#FF5BDB"/>
</linearGradient>
<linearGradient id="paint1_linear_156_1452" x1="89.75" y1="14.75" x2="0.387411" y2="19.1742" gradientUnits="userSpaceOnUse">
<stop stop-color="#9949FF"/>
<stop offset="1" stop-color="#5B6CFF"/>
</linearGradient>
<linearGradient id="paint2_linear_156_1452" x1="90.75" y1="13.9091" x2="1.37869" y2="18.2447" gradientUnits="userSpaceOnUse">
<stop stop-color="#8349FF"/>
<stop offset="1" stop-color="#FF5BDB"/>
</linearGradient>
<linearGradient id="paint3_linear_156_1452" x1="90.75" y1="13.9091" x2="1.37869" y2="18.2447" gradientUnits="userSpaceOnUse">
<stop stop-color="#9949FF"/>
<stop offset="1" stop-color="#5B6CFF"/>
</linearGradient>
<clipPath id="clip0_156_1452">
<rect width="62" height="62" fill="white" transform="translate(4.5 38)"/>
</clipPath>
<clipPath id="clip1_156_1452">
<rect width="62" height="87" fill="white" transform="translate(36.5 6)"/>
</clipPath>
</defs>
</svg>
