<svg width="221" height="182" viewBox="0 0 221 182" fill="none" xmlns="http://www.w3.org/2000/svg">
<g opacity="0.1">
<path d="M198.9 0H221V221H0V132.6H22.1V198.9H66.3V154.7H88.4V198.9H132.6V132.6H154.7V198.9H198.9V22.1H88.4V44.2H66.3V0H198.9ZM110.5 110.5H132.6V132.6H110.5V110.5ZM88.4 88.4H110.5V110.5H88.4V88.4ZM66.3 88.4V66.3H88.4V88.4H66.3ZM44.2 110.5V88.4H66.3V110.5H44.2ZM44.2 110.5H22.1V132.6H44.2V110.5ZM154.7 44.2H176.8V66.3H154.7V44.2ZM132.6 44.2H110.5V66.3H132.6V44.2ZM154.7 88.4H176.8V110.5H154.7V88.4Z" fill="url(#paint0_linear_247_18631)"/>
<path d="M198.9 0H221V221H0V132.6H22.1V198.9H66.3V154.7H88.4V198.9H132.6V132.6H154.7V198.9H198.9V22.1H88.4V44.2H66.3V0H198.9ZM110.5 110.5H132.6V132.6H110.5V110.5ZM88.4 88.4H110.5V110.5H88.4V88.4ZM66.3 88.4V66.3H88.4V88.4H66.3ZM44.2 110.5V88.4H66.3V110.5H44.2ZM44.2 110.5H22.1V132.6H44.2V110.5ZM154.7 44.2H176.8V66.3H154.7V44.2ZM132.6 44.2H110.5V66.3H132.6V44.2ZM154.7 88.4H176.8V110.5H154.7V88.4Z" fill="white" fill-opacity="0.4"/>
</g>
<defs>
<linearGradient id="paint0_linear_247_18631" x1="221" y1="-6.65163e-05" x2="-33.8275" y2="12.6162" gradientUnits="userSpaceOnUse">
<stop stop-color="#9949FF"/>
<stop offset="1" stop-color="#5B6CFF"/>
</linearGradient>
</defs>
</svg>
