<svg width="33" height="40" viewBox="0 0 33 40" fill="none" xmlns="http://www.w3.org/2000/svg">
<path d="M16.4118 0.0881348C10.9383 0.0881348 6.48529 4.57413 6.48529 10.0881V16.0881H4.5C3.44693 16.0881 2.437 16.5096 1.69237 17.2597C0.94774 18.0099 0.529411 19.0273 0.529411 20.0881V36.0881C0.529411 37.149 0.94774 38.1664 1.69237 38.9166C2.437 39.6667 3.44693 40.0881 4.5 40.0881H28.3235C29.3766 40.0881 30.3865 39.6667 31.1312 38.9166C31.8758 38.1664 32.2941 37.149 32.2941 36.0881V20.0881C32.2941 19.0273 31.8758 18.0099 31.1312 17.2597C30.3865 16.5096 29.3766 16.0881 28.3235 16.0881H26.3382V10.0881C26.3382 4.57413 21.8852 0.0881348 16.4118 0.0881348ZM10.4559 10.0881C10.4559 6.78013 13.1281 4.08813 16.4118 4.08813C19.6954 4.08813 22.3676 6.78013 22.3676 10.0881V16.0881H10.4559V10.0881ZM18.3971 31.5341V36.0881H14.4265V31.5341C13.7324 31.1337 13.1751 30.5308 12.828 29.8048C12.4809 29.0789 12.3603 28.264 12.4822 27.4677C12.6041 26.6713 12.9627 25.9309 13.5108 25.344C14.0588 24.7571 14.7706 24.3513 15.5521 24.1801C16.1327 24.0508 16.7346 24.0544 17.3136 24.1907C17.8925 24.327 18.4338 24.5924 18.8973 24.9675C19.3609 25.3425 19.735 25.8176 19.992 26.3577C20.249 26.8978 20.3824 27.4892 20.3824 28.0881C20.3812 28.7876 20.1971 29.4744 19.8486 30.0794C19.5 30.6844 18.9994 31.1861 18.3971 31.5341Z" fill="white"/>
<path d="M16.4118 0.0881348C10.9383 0.0881348 6.48529 4.57413 6.48529 10.0881V16.0881H4.5C3.44693 16.0881 2.437 16.5096 1.69237 17.2597C0.94774 18.0099 0.529411 19.0273 0.529411 20.0881V36.0881C0.529411 37.149 0.94774 38.1664 1.69237 38.9166C2.437 39.6667 3.44693 40.0881 4.5 40.0881H28.3235C29.3766 40.0881 30.3865 39.6667 31.1312 38.9166C31.8758 38.1664 32.2941 37.149 32.2941 36.0881V20.0881C32.2941 19.0273 31.8758 18.0099 31.1312 17.2597C30.3865 16.5096 29.3766 16.0881 28.3235 16.0881H26.3382V10.0881C26.3382 4.57413 21.8852 0.0881348 16.4118 0.0881348ZM10.4559 10.0881C10.4559 6.78013 13.1281 4.08813 16.4118 4.08813C19.6954 4.08813 22.3676 6.78013 22.3676 10.0881V16.0881H10.4559V10.0881ZM18.3971 31.5341V36.0881H14.4265V31.5341C13.7324 31.1337 13.1751 30.5308 12.828 29.8048C12.4809 29.0789 12.3603 28.264 12.4822 27.4677C12.6041 26.6713 12.9627 25.9309 13.5108 25.344C14.0588 24.7571 14.7706 24.3513 15.5521 24.1801C16.1327 24.0508 16.7346 24.0544 17.3136 24.1907C17.8925 24.327 18.4338 24.5924 18.8973 24.9675C19.3609 25.3425 19.735 25.8176 19.992 26.3577C20.249 26.8978 20.3824 27.4892 20.3824 28.0881C20.3812 28.7876 20.1971 29.4744 19.8486 30.0794C19.5 30.6844 18.9994 31.1861 18.3971 31.5341Z" fill="url(#paint0_linear_123_2215)"/>
<defs>
<linearGradient id="paint0_linear_123_2215" x1="32.2941" y1="0.0881227" x2="-4.36578" y2="1.52944" gradientUnits="userSpaceOnUse">
<stop stop-color="#9949FF"/>
<stop offset="1" stop-color="#5B6CFF"/>
</linearGradient>
</defs>
</svg>
