<svg width="27" height="22" viewBox="0 0 27 22" fill="none" xmlns="http://www.w3.org/2000/svg">
<path opacity="0.9" d="M9.40818 21H5.43218L18.0322 1.12H22.0082L9.40818 21ZM21.1402 21.224C19.6095 21.224 18.3028 20.6827 17.2202 19.6C16.1562 18.5173 15.6242 17.22 15.6242 15.708C15.6242 14.1773 16.1562 12.88 17.2202 11.816C18.3028 10.7333 19.6095 10.192 21.1402 10.192C22.6522 10.192 23.9495 10.7333 25.0322 11.816C26.1148 12.88 26.6562 14.1773 26.6562 15.708C26.6562 17.22 26.1148 18.5173 25.0322 19.6C23.9495 20.6827 22.6522 21.224 21.1402 21.224ZM19.5442 17.304C19.9922 17.752 20.5242 17.976 21.1402 17.976C21.7562 17.976 22.2788 17.752 22.7082 17.304C23.1375 16.856 23.3522 16.324 23.3522 15.708C23.3522 15.092 23.1375 14.56 22.7082 14.112C22.2788 13.664 21.7562 13.44 21.1402 13.44C20.5242 13.44 19.9922 13.664 19.5442 14.112C19.1148 14.56 18.9002 15.092 18.9002 15.708C18.9002 16.324 19.1148 16.856 19.5442 17.304ZM6.30018 11.928C4.76951 11.928 3.46285 11.3867 2.38018 10.304C1.31618 9.22133 0.78418 7.924 0.78418 6.412C0.78418 4.88133 1.31618 3.584 2.38018 2.52C3.46285 1.43733 4.76951 0.895996 6.30018 0.895996C7.81218 0.895996 9.10951 1.43733 10.1922 2.52C11.2748 3.584 11.8162 4.88133 11.8162 6.412C11.8162 7.924 11.2748 9.22133 10.1922 10.304C9.10951 11.3867 7.81218 11.928 6.30018 11.928ZM4.70418 8.008C5.15218 8.456 5.68418 8.68 6.30018 8.68C6.91618 8.68 7.43885 8.456 7.86818 8.008C8.31618 7.56 8.54018 7.028 8.54018 6.412C8.54018 5.796 8.31618 5.264 7.86818 4.816C7.43885 4.368 6.91618 4.144 6.30018 4.144C5.68418 4.144 5.15218 4.368 4.70418 4.816C4.27485 5.264 4.06018 5.796 4.06018 6.412C4.06018 7.028 4.27485 7.56 4.70418 8.008Z" fill="white"/>
</svg>
