<svg width="28" height="28" viewBox="0 0 28 28" fill="none" xmlns="http://www.w3.org/2000/svg">
<g opacity="0.6">
<path d="M25.375 3.5H23.625V2.10044C23.625 1.42625 23.1184 0.875 22.5006 0.875H16.8726C16.2566 0.875 15.75 1.42625 15.75 2.10044V3.5H5.22419L2.625 8.75H4.42969V12.25H4.13744L2.67969 14L4.13744 15.75H4.45681V16.6897C4.45681 16.9273 4.64013 17.1194 4.86719 17.1194C5.54575 17.1194 6.09787 17.6986 6.09787 18.4104C6.09787 19.1222 5.54575 19.7015 4.86719 19.7015C4.18862 19.7015 3.6365 19.1222 3.6365 18.4104C3.6365 18.1729 3.45275 17.9808 3.22613 17.9808C2.99906 17.9808 2.81575 18.1729 2.81575 18.4104C2.81662 19.5978 3.73625 20.5625 4.86719 20.5625C5.99769 20.5625 6.91819 19.5978 6.91819 18.4109C6.91819 17.3718 6.2125 16.5021 5.27756 16.303V15.75H5.5965L7.05469 14L5.5965 12.25H5.30469V8.75H15.75V11.8996C15.75 12.4806 16.1267 12.9675 16.625 13.0926V27.125H17.7734V24.5L21.6016 25.8125L17.7734 27.125H22.75V13.0922C23.2488 12.9675 23.625 12.4806 23.625 11.8996V8.75H25.375V7.4375H24.4659L25.375 5.71156V3.5ZM4.65631 7.4375L5.67831 5.33794L6.78344 7.4375H4.65631ZM6.59094 4.8125H8.40788L7.49963 6.53844L6.59094 4.8125ZM8.21581 7.4375L9.1245 5.71156L10.0336 7.4375H8.21581ZM9.84112 4.8125H11.6581L10.7494 6.53844L9.84112 4.8125ZM11.4664 7.4375L12.3747 5.71156L13.2829 7.4375H11.4664ZM13.0913 4.8125H14.9082L14 6.53844L13.0913 4.8125ZM15.75 7.4375H14.7162L15.6244 5.71156L15.75 5.95V7.4375ZM21.6016 24.5L17.7734 23.1875L21.6016 21.875V24.5ZM17.7734 21.875V19.25L21.6016 20.5634L17.7734 21.875ZM21.6016 19.25L17.7734 17.9375L21.6016 16.625V19.25ZM17.7734 16.625V14.0009L21.6016 15.3125L17.7734 16.625ZM21.6016 14.0009L19.0487 13.125H21.6016V14.0009ZM22.2578 6.671C22.2578 7.09231 21.9621 7.4375 21.6016 7.4375H17.6632C17.3027 7.4375 17.0078 7.09231 17.0078 6.671V2.95662C17.0078 2.53269 17.3027 2.1875 17.6632 2.1875H21.6016C21.9621 2.1875 22.2578 2.53269 22.2578 2.95662V6.671ZM23.7497 6.53844L23.625 6.30131V4.8125H24.6579L23.7497 6.53844Z" fill="white"/>
<path d="M25.375 3.5H23.625V2.10044C23.625 1.42625 23.1184 0.875 22.5006 0.875H16.8726C16.2566 0.875 15.75 1.42625 15.75 2.10044V3.5H5.22419L2.625 8.75H4.42969V12.25H4.13744L2.67969 14L4.13744 15.75H4.45681V16.6897C4.45681 16.9273 4.64013 17.1194 4.86719 17.1194C5.54575 17.1194 6.09787 17.6986 6.09787 18.4104C6.09787 19.1222 5.54575 19.7015 4.86719 19.7015C4.18862 19.7015 3.6365 19.1222 3.6365 18.4104C3.6365 18.1729 3.45275 17.9808 3.22613 17.9808C2.99906 17.9808 2.81575 18.1729 2.81575 18.4104C2.81662 19.5978 3.73625 20.5625 4.86719 20.5625C5.99769 20.5625 6.91819 19.5978 6.91819 18.4109C6.91819 17.3718 6.2125 16.5021 5.27756 16.303V15.75H5.5965L7.05469 14L5.5965 12.25H5.30469V8.75H15.75V11.8996C15.75 12.4806 16.1267 12.9675 16.625 13.0926V27.125H17.7734V24.5L21.6016 25.8125L17.7734 27.125H22.75V13.0922C23.2488 12.9675 23.625 12.4806 23.625 11.8996V8.75H25.375V7.4375H24.4659L25.375 5.71156V3.5ZM4.65631 7.4375L5.67831 5.33794L6.78344 7.4375H4.65631ZM6.59094 4.8125H8.40788L7.49963 6.53844L6.59094 4.8125ZM8.21581 7.4375L9.1245 5.71156L10.0336 7.4375H8.21581ZM9.84112 4.8125H11.6581L10.7494 6.53844L9.84112 4.8125ZM11.4664 7.4375L12.3747 5.71156L13.2829 7.4375H11.4664ZM13.0913 4.8125H14.9082L14 6.53844L13.0913 4.8125ZM15.75 7.4375H14.7162L15.6244 5.71156L15.75 5.95V7.4375ZM21.6016 24.5L17.7734 23.1875L21.6016 21.875V24.5ZM17.7734 21.875V19.25L21.6016 20.5634L17.7734 21.875ZM21.6016 19.25L17.7734 17.9375L21.6016 16.625V19.25ZM17.7734 16.625V14.0009L21.6016 15.3125L17.7734 16.625ZM21.6016 14.0009L19.0487 13.125H21.6016V14.0009ZM22.2578 6.671C22.2578 7.09231 21.9621 7.4375 21.6016 7.4375H17.6632C17.3027 7.4375 17.0078 7.09231 17.0078 6.671V2.95662C17.0078 2.53269 17.3027 2.1875 17.6632 2.1875H21.6016C21.9621 2.1875 22.2578 2.53269 22.2578 2.95662V6.671ZM23.7497 6.53844L23.625 6.30131V4.8125H24.6579L23.7497 6.53844Z" fill="white" fill-opacity="0.7"/>
</g>
</svg>
