<svg width="32" height="32" viewBox="0 0 32 32" fill="none" xmlns="http://www.w3.org/2000/svg">
<rect width="32" height="32" rx="16" fill="white"/>
<rect width="32" height="32" rx="16" fill="url(#paint0_linear_1_201)"/>
<rect width="32" height="32" rx="16" fill="url(#paint1_linear_1_201)"/>
<path d="M21.6 9H23V23H9V17.4H10.4V21.6H13.2V18.8H14.6V21.6H17.4V17.4H18.8V21.6H21.6V10.4H14.6V11.8H13.2V9H21.6ZM16 16H17.4V17.4H16V16ZM14.6 14.6H16V16H14.6V14.6ZM13.2 14.6V13.2H14.6V14.6H13.2ZM11.8 16V14.6H13.2V16H11.8ZM11.8 16H10.4V17.4H11.8V16ZM18.8 11.8H20.2V13.2H18.8V11.8ZM17.4 11.8H16V13.2H17.4V11.8ZM18.8 14.6H20.2V16H18.8V14.6Z" fill="white"/>
<path d="M21.6 9H23V23H9V17.4H10.4V21.6H13.2V18.8H14.6V21.6H17.4V17.4H18.8V21.6H21.6V10.4H14.6V11.8H13.2V9H21.6ZM16 16H17.4V17.4H16V16ZM14.6 14.6H16V16H14.6V14.6ZM13.2 14.6V13.2H14.6V14.6H13.2ZM11.8 16V14.6H13.2V16H11.8ZM11.8 16H10.4V17.4H11.8V16ZM18.8 11.8H20.2V13.2H18.8V11.8ZM17.4 11.8H16V13.2H17.4V11.8ZM18.8 14.6H20.2V16H18.8V14.6Z" fill="white"/>
<defs>
<linearGradient id="paint0_linear_1_201" x1="32" y1="-9.63132e-06" x2="-4.8981" y2="1.82678" gradientUnits="userSpaceOnUse">
<stop stop-color="#8349FF"/>
<stop offset="1" stop-color="#FF5BDB"/>
</linearGradient>
<linearGradient id="paint1_linear_1_201" x1="32" y1="-9.63132e-06" x2="-4.8981" y2="1.82678" gradientUnits="userSpaceOnUse">
<stop stop-color="#9949FF"/>
<stop offset="1" stop-color="#5B6CFF"/>
</linearGradient>
</defs>
</svg>
