<svg width="88" height="36" viewBox="0 0 88 36" fill="none" xmlns="http://www.w3.org/2000/svg">
<path d="M30 3H33V33H3V21H6V30H12V24H15V30H21V21H24V30H30V6H15V9H12V3H30ZM18 18H21V21H18V18ZM15 15H18V18H15V15ZM12 15V12H15V15H12ZM9 18V15H12V18H9ZM9 18H6V21H9V18ZM24 9H27V12H24V9ZM21 9H18V12H21V9ZM24 15H27V18H24V15Z" fill="white"/>
<path d="M30 3H33V33H3V21H6V30H12V24H15V30H21V21H24V30H30V6H15V9H12V3H30ZM18 18H21V21H18V18ZM15 15H18V18H15V15ZM12 15V12H15V15H12ZM9 18V15H12V18H9ZM9 18H6V21H9V18ZM24 9H27V12H24V9ZM21 9H18V12H21V9ZM24 15H27V18H24V15Z" fill="url(#paint0_linear_297_439)"/>
<path d="M30 3H33V33H3V21H6V30H12V24H15V30H21V21H24V30H30V6H15V9H12V3H30ZM18 18H21V21H18V18ZM15 15H18V18H15V15ZM12 15V12H15V15H12ZM9 18V15H12V18H9ZM9 18H6V21H9V18ZM24 9H27V12H24V9ZM21 9H18V12H21V9ZM24 15H27V18H24V15Z" fill="url(#paint1_linear_297_439)"/>
<rect x="18" y="9" width="3" height="3" fill="white"/>
<rect x="12" y="24" width="3" height="6" fill="white"/>
<rect x="24" y="9" width="3" height="3" fill="white"/>
<rect x="24" y="15" width="3" height="3" fill="white"/>
<path d="M45.8859 27V9.96H52.6059C54.1739 9.96 55.4459 10.456 56.4219 11.448C57.3979 12.44 57.8859 13.656 57.8859 15.096C57.8859 17.24 56.7739 18.704 54.5499 19.488L60.5739 27H55.9899L50.3019 19.968H49.7019V27H45.8859ZM49.7019 16.728H52.1499C52.7259 16.728 53.1899 16.576 53.5419 16.272C53.9099 15.968 54.0939 15.576 54.0939 15.096C54.0939 14.584 53.9099 14.184 53.5419 13.896C53.1899 13.608 52.7259 13.464 52.1499 13.464H49.7019V16.728ZM66.4958 27.264C64.6878 27.264 63.1678 26.696 61.9358 25.56C60.7198 24.408 60.1118 22.888 60.1118 21C60.1118 19.208 60.7118 17.72 61.9118 16.536C63.1118 15.336 64.6158 14.736 66.4238 14.736C68.1038 14.736 69.5198 15.248 70.6718 16.272C71.8238 17.296 72.3998 18.736 72.3998 20.592C72.3998 21.056 72.3758 21.48 72.3278 21.864H63.6158C63.7118 22.552 64.0398 23.08 64.5998 23.448C65.1598 23.8 65.8078 23.976 66.5438 23.976C67.1998 23.976 67.7838 23.848 68.2958 23.592C68.8078 23.32 69.1918 22.992 69.4478 22.608L72.1358 24.624C71.5598 25.44 70.7838 26.088 69.8078 26.568C68.8318 27.032 67.7278 27.264 66.4958 27.264ZM63.7118 19.488H68.7998C68.6558 18.896 68.3518 18.448 67.8878 18.144C67.4238 17.84 66.9038 17.688 66.3278 17.688C65.7198 17.688 65.1678 17.84 64.6718 18.144C64.1758 18.432 63.8558 18.88 63.7118 19.488ZM78.3073 32.016H74.6833V15H78.3073V16.2C78.5633 15.816 78.9873 15.48 79.5793 15.192C80.1713 14.888 80.8353 14.736 81.5713 14.736C83.1233 14.736 84.4353 15.352 85.5073 16.584C86.5953 17.816 87.1393 19.288 87.1393 21C87.1393 22.712 86.5953 24.184 85.5073 25.416C84.4353 26.648 83.1233 27.264 81.5713 27.264C80.8353 27.264 80.1713 27.12 79.5793 26.832C78.9873 26.528 78.5633 26.184 78.3073 25.8V32.016ZM78.7633 23.136C79.2753 23.696 79.9393 23.976 80.7553 23.976C81.5713 23.976 82.2273 23.696 82.7233 23.136C83.2353 22.576 83.4913 21.864 83.4913 21C83.4913 20.136 83.2353 19.424 82.7233 18.864C82.2273 18.304 81.5713 18.024 80.7553 18.024C79.9393 18.024 79.2753 18.304 78.7633 18.864C78.2673 19.424 78.0193 20.136 78.0193 21C78.0193 21.864 78.2673 22.576 78.7633 23.136Z" fill="url(#paint2_linear_297_439)"/>
<defs>
<linearGradient id="paint0_linear_297_439" x1="33" y1="2.99999" x2="-1.59197" y2="4.7126" gradientUnits="userSpaceOnUse">
<stop stop-color="#8349FF"/>
<stop offset="1" stop-color="#FF5BDB"/>
</linearGradient>
<linearGradient id="paint1_linear_297_439" x1="33" y1="2.99999" x2="-1.59197" y2="4.7126" gradientUnits="userSpaceOnUse">
<stop stop-color="#9949FF"/>
<stop offset="1" stop-color="#5B6CFF"/>
</linearGradient>
<linearGradient id="paint2_linear_297_439" x1="88" y1="2.99999" x2="37.4075" y2="6.67367" gradientUnits="userSpaceOnUse">
<stop stop-color="#9949FF"/>
<stop offset="1" stop-color="#5B6CFF"/>
</linearGradient>
</defs>
</svg>
