<svg width="10" height="14" viewBox="0 0 10 14" fill="none" xmlns="http://www.w3.org/2000/svg">
<path d="M2 1.53971e-07C1.46957 1.53971e-07 0.960859 0.210714 0.585786 0.585787C0.210714 0.960859 0 1.46957 0 2V12C0 12.5304 0.210714 13.0391 0.585786 13.4142C0.960859 13.7893 1.46957 14 2 14H8C8.53043 14 9.03914 13.7893 9.41421 13.4142C9.78929 13.0391 10 12.5304 10 12V4.414C9.99965 4.01631 9.84139 3.63504 9.56 3.354L6.647 0.439C6.50764 0.299733 6.34222 0.189283 6.16017 0.113959C5.97812 0.0386344 5.78302 -8.9109e-05 5.586 1.53971e-07H2ZM1 2C1 1.73478 1.10536 1.48043 1.29289 1.29289C1.48043 1.10536 1.73478 1 2 1H5V3.5C5 3.89783 5.15804 4.27936 5.43934 4.56066C5.72064 4.84196 6.10218 5 6.5 5H9V12C9 12.2652 8.89464 12.5196 8.70711 12.7071C8.51957 12.8946 8.26522 13 8 13H2C1.73478 13 1.48043 12.8946 1.29289 12.7071C1.10536 12.5196 1 12.2652 1 12V2ZM8.793 4H6.5C6.36739 4 6.24021 3.94732 6.14645 3.85355C6.05268 3.75979 6 3.63261 6 3.5V1.207L8.793 4Z" fill="black"/>
<path d="M2 1.53971e-07C1.46957 1.53971e-07 0.960859 0.210714 0.585786 0.585787C0.210714 0.960859 0 1.46957 0 2V12C0 12.5304 0.210714 13.0391 0.585786 13.4142C0.960859 13.7893 1.46957 14 2 14H8C8.53043 14 9.03914 13.7893 9.41421 13.4142C9.78929 13.0391 10 12.5304 10 12V4.414C9.99965 4.01631 9.84139 3.63504 9.56 3.354L6.647 0.439C6.50764 0.299733 6.34222 0.189283 6.16017 0.113959C5.97812 0.0386344 5.78302 -8.9109e-05 5.586 1.53971e-07H2ZM1 2C1 1.73478 1.10536 1.48043 1.29289 1.29289C1.48043 1.10536 1.73478 1 2 1H5V3.5C5 3.89783 5.15804 4.27936 5.43934 4.56066C5.72064 4.84196 6.10218 5 6.5 5H9V12C9 12.2652 8.89464 12.5196 8.70711 12.7071C8.51957 12.8946 8.26522 13 8 13H2C1.73478 13 1.48043 12.8946 1.29289 12.7071C1.10536 12.5196 1 12.2652 1 12V2ZM8.793 4H6.5C6.36739 4 6.24021 3.94732 6.14645 3.85355C6.05268 3.75979 6 3.63261 6 3.5V1.207L8.793 4Z" fill="url(#paint0_linear_152_3847)"/>
<defs>
<linearGradient id="paint0_linear_152_3847" x1="10" y1="-4.2137e-06" x2="-1.54448" y2="0.40825" gradientUnits="userSpaceOnUse">
<stop stop-color="#9949FF"/>
<stop offset="1" stop-color="#5B6CFF"/>
</linearGradient>
</defs>
</svg>
