<svg width="28" height="30" viewBox="0 0 28 30" fill="none" xmlns="http://www.w3.org/2000/svg">
<path d="M7.56752 11.9433H6.69434C5.50277 11.8993 4.31505 12.1061 3.20491 12.5509C2.09477 12.9957 1.08589 13.669 0.240876 14.5291L0 14.8164V23.3125H4.09489V18.4898L4.6469 17.8536L4.89781 17.5561C6.20449 16.1837 7.83126 15.1738 9.625 14.6214C8.72693 13.9228 8.01864 13.0008 7.56752 11.9433Z" fill="#9F9F9F"/>
<path d="M7.56752 11.9433H6.69434C5.50277 11.8993 4.31505 12.1061 3.20491 12.5509C2.09477 12.9957 1.08589 13.669 0.240876 14.5291L0 14.8164V23.3125H4.09489V18.4898L4.6469 17.8536L4.89781 17.5561C6.20449 16.1837 7.83126 15.1738 9.625 14.6214C8.72693 13.9228 8.01864 13.0008 7.56752 11.9433Z" fill="#9F9F9F"/>
<path d="M27.7923 14.5198C26.9594 13.6628 25.965 12.9919 24.8709 12.5487C23.7767 12.1055 22.6061 11.8994 21.4317 11.9433C21.0715 11.9443 20.7116 11.9648 20.3534 12.0046C19.9004 12.9932 19.2214 13.8529 18.375 14.5095C20.2624 15.0492 21.9721 16.1095 23.321 17.5768L23.5683 17.863L24.1025 18.4969V23.3125H28V14.806L27.7923 14.5198Z" fill="#9F9F9F"/>
<path d="M27.7923 14.5198C26.9594 13.6628 25.965 12.9919 24.8709 12.5487C23.7767 12.1055 22.6061 11.8994 21.4317 11.9433C21.0715 11.9443 20.7116 11.9648 20.3534 12.0046C19.9004 12.9932 19.2214 13.8529 18.375 14.5095C20.2624 15.0492 21.9721 16.1095 23.321 17.5768L23.5683 17.863L24.1025 18.4969V23.3125H28V14.806L27.7923 14.5198Z" fill="#9F9F9F"/>
<path d="M6.91477 9.27399H7.23974C7.08875 8.08335 7.31624 6.87802 7.89476 5.80349C8.47328 4.72897 9.3781 3.83119 10.5 3.21852C10.0933 2.64797 9.53226 2.18419 8.87177 1.8726C8.21127 1.561 7.47397 1.41228 6.73208 1.44099C5.99019 1.4697 5.26913 1.67486 4.63952 2.03638C4.00991 2.3979 3.49333 2.90339 3.14037 3.50334C2.7874 4.10329 2.61015 4.77714 2.62597 5.4589C2.6418 6.14066 2.85015 6.80697 3.23063 7.39256C3.61111 7.97816 4.15067 8.46297 4.79648 8.79953C5.4423 9.13608 6.17222 9.31284 6.91477 9.3125V9.27399Z" fill="#9F9F9F"/>
<path d="M6.91477 9.27399H7.23974C7.08875 8.08335 7.31624 6.87802 7.89476 5.80349C8.47328 4.72897 9.3781 3.83119 10.5 3.21852C10.0933 2.64797 9.53226 2.18419 8.87177 1.8726C8.21127 1.561 7.47397 1.41228 6.73208 1.44099C5.99019 1.4697 5.26913 1.67486 4.63952 2.03638C4.00991 2.3979 3.49333 2.90339 3.14037 3.50334C2.7874 4.10329 2.61015 4.77714 2.62597 5.4589C2.6418 6.14066 2.85015 6.80697 3.23063 7.39256C3.61111 7.97816 4.15067 8.46297 4.79648 8.79953C5.4423 9.13608 6.17222 9.31284 6.91477 9.3125V9.27399Z" fill="#9F9F9F"/>
<path d="M20.5662 8.59959C20.5788 8.82101 20.5788 9.0429 20.5662 9.26433C20.765 9.29364 20.9658 9.30974 21.167 9.3125H21.3638C22.0944 9.27627 22.8023 9.06474 23.4189 8.69851C24.0354 8.33227 24.5394 7.82381 24.8819 7.22262C25.2245 6.62143 25.3938 5.948 25.3734 5.2679C25.3529 4.5878 25.1435 3.9242 24.7655 3.34171C24.3875 2.75921 23.8537 2.27768 23.2162 1.94398C22.5787 1.61029 21.8591 1.4358 21.1276 1.43751C20.396 1.43922 19.6774 1.61707 19.0417 1.95375C18.406 2.29042 17.8749 2.77445 17.5 3.3587C18.4376 3.92801 19.2085 4.70486 19.7437 5.61958C20.2788 6.53429 20.5614 7.55824 20.5662 8.59959Z" fill="#9F9F9F"/>
<path d="M20.5662 8.59959C20.5788 8.82101 20.5788 9.0429 20.5662 9.26433C20.765 9.29364 20.9658 9.30974 21.167 9.3125H21.3638C22.0944 9.27627 22.8023 9.06474 23.4189 8.69851C24.0354 8.33227 24.5394 7.82381 24.8819 7.22262C25.2245 6.62143 25.3938 5.948 25.3734 5.2679C25.3529 4.5878 25.1435 3.9242 24.7655 3.34171C24.3875 2.75921 23.8537 2.27768 23.2162 1.94398C22.5787 1.61029 21.8591 1.4358 21.1276 1.43751C20.396 1.43922 19.6774 1.61707 19.0417 1.95375C18.406 2.29042 17.8749 2.77445 17.5 3.3587C18.4376 3.92801 19.2085 4.70486 19.7437 5.61958C20.2788 6.53429 20.5614 7.55824 20.5662 8.59959Z" fill="#9F9F9F"/>
<path d="M14 13.6875C16.4162 13.6875 18.375 11.7287 18.375 9.3125C18.375 6.89625 16.4162 4.9375 14 4.9375C11.5838 4.9375 9.625 6.89625 9.625 9.3125C9.625 11.7287 11.5838 13.6875 14 13.6875Z" fill="#9F9F9F"/>
<path d="M14 13.6875C16.4162 13.6875 18.375 11.7287 18.375 9.3125C18.375 6.89625 16.4162 4.9375 14 4.9375C11.5838 4.9375 9.625 6.89625 9.625 9.3125C9.625 11.7287 11.5838 13.6875 14 13.6875Z" fill="#9F9F9F"/>
<path d="M14.0161 16.3219C12.6159 16.2667 11.2187 16.4887 9.90869 16.9748C8.59863 17.4608 7.40277 18.2008 6.39304 19.1501L6.125 19.4434V26.0741C6.12918 26.29 6.17688 26.5031 6.26536 26.7011C6.35384 26.899 6.48138 27.078 6.64068 27.2278C6.79998 27.3776 6.98793 27.4953 7.19379 27.5741C7.39965 27.6529 7.61939 27.6914 7.84045 27.6872H20.1595C20.3806 27.6914 20.6003 27.6529 20.8062 27.5741C21.0121 27.4953 21.2 27.3776 21.3593 27.2278C21.5186 27.078 21.6462 26.899 21.7346 26.7011C21.8231 26.5031 21.8708 26.29 21.875 26.0741V19.4644L21.6177 19.1501C20.6145 18.1979 19.4228 17.4558 18.1157 16.9695C16.8085 16.4832 15.4135 16.2628 14.0161 16.3219Z" fill="#9F9F9F"/>
<path d="M14.0161 16.3219C12.6159 16.2667 11.2187 16.4887 9.90869 16.9748C8.59863 17.4608 7.40277 18.2008 6.39304 19.1501L6.125 19.4434V26.0741C6.12918 26.29 6.17688 26.5031 6.26536 26.7011C6.35384 26.899 6.48138 27.078 6.64068 27.2278C6.79998 27.3776 6.98793 27.4953 7.19379 27.5741C7.39965 27.6529 7.61939 27.6914 7.84045 27.6872H20.1595C20.3806 27.6914 20.6003 27.6529 20.8062 27.5741C21.0121 27.4953 21.2 27.3776 21.3593 27.2278C21.5186 27.078 21.6462 26.899 21.7346 26.7011C21.8231 26.5031 21.8708 26.29 21.875 26.0741V19.4644L21.6177 19.1501C20.6145 18.1979 19.4228 17.4558 18.1157 16.9695C16.8085 16.4832 15.4135 16.2628 14.0161 16.3219Z" fill="#9F9F9F"/>
</svg>
