<svg width="24" height="24" viewBox="0 0 24 24" fill="none" xmlns="http://www.w3.org/2000/svg">
<path d="M4.22196 19.7782C4.68584 20.2427 5.23693 20.611 5.84358 20.8619C6.45023 21.1128 7.10048 21.2414 7.75696 21.2402C8.41359 21.2414 9.06398 21.1128 9.67079 20.8619C10.2776 20.611 10.8289 20.2427 11.293 19.7782L14.121 16.9492L12.707 15.5352L9.87896 18.3642C9.31543 18.9252 8.55263 19.2402 7.75746 19.2402C6.96229 19.2402 6.19949 18.9252 5.63596 18.3642C5.07447 17.8009 4.75917 17.038 4.75917 16.2427C4.75917 15.4474 5.07447 14.6845 5.63596 14.1212L8.46496 11.2932L7.05096 9.87921L4.22196 12.7072C3.28577 13.6457 2.76001 14.9171 2.76001 16.2427C2.76001 17.5683 3.28577 18.8397 4.22196 19.7782ZM19.778 11.2932C20.7137 10.3545 21.2391 9.08312 21.2391 7.75771C21.2391 6.43229 20.7137 5.16092 19.778 4.22221C18.8395 3.28601 17.568 2.76025 16.2425 2.76025C14.9169 2.76025 13.6454 3.28601 12.707 4.22221L9.87896 7.05121L11.293 8.46521L14.121 5.63621C14.6845 5.0752 15.4473 4.76024 16.2425 4.76024C17.0376 4.76024 17.8004 5.0752 18.364 5.63621C18.9255 6.19948 19.2408 6.96237 19.2408 7.75771C19.2408 8.55304 18.9255 9.31593 18.364 9.87921L15.535 12.7072L16.949 14.1212L19.778 11.2932Z" fill="black"/>
<path d="M4.22196 19.7782C4.68584 20.2427 5.23693 20.611 5.84358 20.8619C6.45023 21.1128 7.10048 21.2414 7.75696 21.2402C8.41359 21.2414 9.06398 21.1128 9.67079 20.8619C10.2776 20.611 10.8289 20.2427 11.293 19.7782L14.121 16.9492L12.707 15.5352L9.87896 18.3642C9.31543 18.9252 8.55263 19.2402 7.75746 19.2402C6.96229 19.2402 6.19949 18.9252 5.63596 18.3642C5.07447 17.8009 4.75917 17.038 4.75917 16.2427C4.75917 15.4474 5.07447 14.6845 5.63596 14.1212L8.46496 11.2932L7.05096 9.87921L4.22196 12.7072C3.28577 13.6457 2.76001 14.9171 2.76001 16.2427C2.76001 17.5683 3.28577 18.8397 4.22196 19.7782ZM19.778 11.2932C20.7137 10.3545 21.2391 9.08312 21.2391 7.75771C21.2391 6.43229 20.7137 5.16092 19.778 4.22221C18.8395 3.28601 17.568 2.76025 16.2425 2.76025C14.9169 2.76025 13.6454 3.28601 12.707 4.22221L9.87896 7.05121L11.293 8.46521L14.121 5.63621C14.6845 5.0752 15.4473 4.76024 16.2425 4.76024C17.0376 4.76024 17.8004 5.0752 18.364 5.63621C18.9255 6.19948 19.2408 6.96237 19.2408 7.75771C19.2408 8.55304 18.9255 9.31593 18.364 9.87921L15.535 12.7072L16.949 14.1212L19.778 11.2932Z" fill="url(#paint0_linear_187_2538)"/>
<path d="M8.46407 16.9498L7.04907 15.5358L15.5361 7.0498L16.9501 8.4648L8.46407 16.9498Z" fill="black"/>
<path d="M8.46407 16.9498L7.04907 15.5358L15.5361 7.0498L16.9501 8.4648L8.46407 16.9498Z" fill="url(#paint1_linear_187_2538)"/>
<defs>
<linearGradient id="paint0_linear_187_2538" x1="21.2391" y1="2.76025" x2="-0.0685078" y2="3.81512" gradientUnits="userSpaceOnUse">
<stop stop-color="#9949FF"/>
<stop offset="1" stop-color="#5B6CFF"/>
</linearGradient>
<linearGradient id="paint1_linear_187_2538" x1="16.9501" y1="7.0498" x2="5.53357" y2="7.61508" gradientUnits="userSpaceOnUse">
<stop stop-color="#9949FF"/>
<stop offset="1" stop-color="#5B6CFF"/>
</linearGradient>
</defs>
</svg>
