<svg width="28" height="29" viewBox="0 0 28 29" fill="none" xmlns="http://www.w3.org/2000/svg">
<g clip-path="url(#clip0_123_2233)">
<path d="M17.1115 16.9745C16.7886 17.3087 16.4024 17.5754 15.9754 17.7588C15.5484 17.9422 15.0891 18.0388 14.6244 18.0428C14.1597 18.0469 13.6988 17.9583 13.2687 17.7823C12.8385 17.6064 12.4477 17.3465 12.1191 17.0178C11.7905 16.6892 11.5306 16.2984 11.3546 15.8683C11.1786 15.4382 11.0901 14.9773 11.0941 14.5126C11.0982 14.0478 11.1947 13.5886 11.3781 13.1615C11.5616 12.7345 11.8282 12.3483 12.1625 12.0255C12.8226 11.3879 13.7067 11.0351 14.6244 11.0431C15.5421 11.0511 16.4199 11.4192 17.0689 12.0681C17.7178 12.717 18.0859 13.5949 18.0939 14.5126C18.1018 15.4302 17.7491 16.3144 17.1115 16.9745Z" fill="black"/>
<g opacity="0.6">
<path d="M4.375 0.5C3.67881 0.5 3.01113 0.776562 2.51884 1.26884C2.02656 1.76113 1.75 2.42881 1.75 3.125V5.75H0.875C0.642936 5.75 0.420376 5.84219 0.256282 6.00628C0.0921872 6.17038 0 6.39294 0 6.625C0 6.85706 0.0921872 7.07962 0.256282 7.24372C0.420376 7.40781 0.642936 7.5 0.875 7.5H1.75V13.625H0.875C0.642936 13.625 0.420376 13.7172 0.256282 13.8813C0.0921872 14.0454 0 14.2679 0 14.5C0 14.7321 0.0921872 14.9546 0.256282 15.1187C0.420376 15.2828 0.642936 15.375 0.875 15.375H1.75V21.5H0.875C0.642936 21.5 0.420376 21.5922 0.256282 21.7563C0.0921872 21.9204 0 22.1429 0 22.375C0 22.6071 0.0921872 22.8296 0.256282 22.9937C0.420376 23.1578 0.642936 23.25 0.875 23.25H1.75V25.875C1.75 26.5712 2.02656 27.2389 2.51884 27.7312C3.01113 28.2234 3.67881 28.5 4.375 28.5H25.375C26.0712 28.5 26.7389 28.2234 27.2312 27.7312C27.7234 27.2389 28 26.5712 28 25.875V3.125C28 2.42881 27.7234 1.76113 27.2312 1.26884C26.7389 0.776562 26.0712 0.5 25.375 0.5L4.375 0.5ZM9.688 8.312L11.5955 10.2195C12.4843 9.58875 13.5472 9.24992 14.637 9.24992C15.7268 9.24992 16.7897 9.58875 17.6785 10.2195L19.586 8.312C19.7503 8.14793 19.9731 8.05585 20.2052 8.05601C20.4374 8.05618 20.6601 8.14857 20.8241 8.31287C20.9882 8.47718 21.0803 8.69993 21.0801 8.93212C21.0799 9.16431 20.9876 9.38693 20.8232 9.551L18.9158 11.4585C20.2108 13.2732 20.2108 15.7285 18.9158 17.5415L20.8232 19.449C20.9876 19.6131 21.0799 19.8357 21.0801 20.0679C21.0803 20.3001 20.9882 20.5228 20.8241 20.6871C20.6601 20.8514 20.4374 20.9438 20.2052 20.944C19.9731 20.9442 19.7503 20.8521 19.586 20.688L17.6785 18.7805C16.7898 19.4115 15.7269 19.7505 14.637 19.7505C13.5471 19.7505 12.4842 19.4115 11.5955 18.7805L9.688 20.688C9.60665 20.7694 9.51007 20.8339 9.40377 20.8779C9.29748 20.9219 9.18355 20.9446 9.0685 20.9446C8.95345 20.9446 8.83952 20.9219 8.73323 20.8779C8.62694 20.8339 8.53035 20.7694 8.449 20.688C8.36765 20.6066 8.30311 20.5101 8.25908 20.4038C8.21506 20.2975 8.19239 20.1836 8.19239 20.0685C8.19239 19.9534 8.21506 19.8395 8.25908 19.7332C8.30311 19.6269 8.36765 19.5304 8.449 19.449L10.3565 17.5415C9.72575 16.6527 9.38692 15.5898 9.38692 14.5C9.38692 13.4102 9.72575 12.3473 10.3565 11.4585L8.449 9.551C8.2847 9.3867 8.19239 9.16386 8.19239 8.9315C8.19239 8.69914 8.2847 8.4763 8.449 8.312C8.6133 8.1477 8.83614 8.0554 9.0685 8.0554C9.30086 8.0554 9.5237 8.1477 9.688 8.312ZM24.5 11.875V17.125C24.5 17.3571 24.4078 17.5796 24.2437 17.7437C24.0796 17.9078 23.8571 18 23.625 18C23.3929 18 23.1704 17.9078 23.0063 17.7437C22.8422 17.5796 22.75 17.3571 22.75 17.125V11.875C22.75 11.6429 22.8422 11.4204 23.0063 11.2563C23.1704 11.0922 23.3929 11 23.625 11C23.8571 11 24.0796 11.0922 24.2437 11.2563C24.4078 11.4204 24.5 11.6429 24.5 11.875Z" fill="white"/>
<path d="M4.375 0.5C3.67881 0.5 3.01113 0.776562 2.51884 1.26884C2.02656 1.76113 1.75 2.42881 1.75 3.125V5.75H0.875C0.642936 5.75 0.420376 5.84219 0.256282 6.00628C0.0921872 6.17038 0 6.39294 0 6.625C0 6.85706 0.0921872 7.07962 0.256282 7.24372C0.420376 7.40781 0.642936 7.5 0.875 7.5H1.75V13.625H0.875C0.642936 13.625 0.420376 13.7172 0.256282 13.8813C0.0921872 14.0454 0 14.2679 0 14.5C0 14.7321 0.0921872 14.9546 0.256282 15.1187C0.420376 15.2828 0.642936 15.375 0.875 15.375H1.75V21.5H0.875C0.642936 21.5 0.420376 21.5922 0.256282 21.7563C0.0921872 21.9204 0 22.1429 0 22.375C0 22.6071 0.0921872 22.8296 0.256282 22.9937C0.420376 23.1578 0.642936 23.25 0.875 23.25H1.75V25.875C1.75 26.5712 2.02656 27.2389 2.51884 27.7312C3.01113 28.2234 3.67881 28.5 4.375 28.5H25.375C26.0712 28.5 26.7389 28.2234 27.2312 27.7312C27.7234 27.2389 28 26.5712 28 25.875V3.125C28 2.42881 27.7234 1.76113 27.2312 1.26884C26.7389 0.776562 26.0712 0.5 25.375 0.5L4.375 0.5ZM9.688 8.312L11.5955 10.2195C12.4843 9.58875 13.5472 9.24992 14.637 9.24992C15.7268 9.24992 16.7897 9.58875 17.6785 10.2195L19.586 8.312C19.7503 8.14793 19.9731 8.05585 20.2052 8.05601C20.4374 8.05618 20.6601 8.14857 20.8241 8.31287C20.9882 8.47718 21.0803 8.69993 21.0801 8.93212C21.0799 9.16431 20.9876 9.38693 20.8232 9.551L18.9158 11.4585C20.2108 13.2732 20.2108 15.7285 18.9158 17.5415L20.8232 19.449C20.9876 19.6131 21.0799 19.8357 21.0801 20.0679C21.0803 20.3001 20.9882 20.5228 20.8241 20.6871C20.6601 20.8514 20.4374 20.9438 20.2052 20.944C19.9731 20.9442 19.7503 20.8521 19.586 20.688L17.6785 18.7805C16.7898 19.4115 15.7269 19.7505 14.637 19.7505C13.5471 19.7505 12.4842 19.4115 11.5955 18.7805L9.688 20.688C9.60665 20.7694 9.51007 20.8339 9.40377 20.8779C9.29748 20.9219 9.18355 20.9446 9.0685 20.9446C8.95345 20.9446 8.83952 20.9219 8.73323 20.8779C8.62694 20.8339 8.53035 20.7694 8.449 20.688C8.36765 20.6066 8.30311 20.5101 8.25908 20.4038C8.21506 20.2975 8.19239 20.1836 8.19239 20.0685C8.19239 19.9534 8.21506 19.8395 8.25908 19.7332C8.30311 19.6269 8.36765 19.5304 8.449 19.449L10.3565 17.5415C9.72575 16.6527 9.38692 15.5898 9.38692 14.5C9.38692 13.4102 9.72575 12.3473 10.3565 11.4585L8.449 9.551C8.2847 9.3867 8.19239 9.16386 8.19239 8.9315C8.19239 8.69914 8.2847 8.4763 8.449 8.312C8.6133 8.1477 8.83614 8.0554 9.0685 8.0554C9.30086 8.0554 9.5237 8.1477 9.688 8.312ZM24.5 11.875V17.125C24.5 17.3571 24.4078 17.5796 24.2437 17.7437C24.0796 17.9078 23.8571 18 23.625 18C23.3929 18 23.1704 17.9078 23.0063 17.7437C22.8422 17.5796 22.75 17.3571 22.75 17.125V11.875C22.75 11.6429 22.8422 11.4204 23.0063 11.2563C23.1704 11.0922 23.3929 11 23.625 11C23.8571 11 24.0796 11.0922 24.2437 11.2563C24.4078 11.4204 24.5 11.6429 24.5 11.875Z" fill="white" fill-opacity="0.7"/>
</g>
</g>
<defs>
<clipPath id="clip0_123_2233">
<rect width="28" height="28" fill="white" transform="translate(0 0.5)"/>
</clipPath>
</defs>
</svg>
