<svg width="24" height="24" viewBox="0 0 24 24" fill="none" xmlns="http://www.w3.org/2000/svg">
<g opacity="0.3" clip-path="url(#clip0_345_3349)">
<path d="M22.717 10.5497C21.7617 7.26756 20.6844 5.57171 20.667 5.54129C20.6056 5.46634 19.0833 3.64459 15.4143 2.29712L14.9295 3.61712C16.6749 4.25818 17.9133 5.04024 18.5943 5.54556C16.5611 4.93838 14.1423 4.56652 12 4.56652C9.85772 4.56652 7.43892 4.93838 5.40567 5.54556C6.08667 5.04029 7.32502 4.25818 9.0705 3.61712L8.58567 2.29712C4.91672 3.64459 3.39441 5.46634 3.333 5.54129C3.31561 5.57171 2.23828 7.26756 1.28306 10.5497C0.362438 13.7126 0.0127031 18.1746 0 18.3535C0.0820312 18.4817 1.96875 21.703 7.11061 21.703L8.41392 19.8157C6.95377 19.428 5.56144 18.8028 4.28691 17.9544L5.06611 16.7838C7.12228 18.1524 9.51998 18.8759 12 18.8759C14.48 18.8759 16.8777 18.1524 18.9339 16.7838L19.7131 17.9544C18.4386 18.8028 17.0462 19.428 15.5861 19.8157L16.8894 21.703C22.0312 21.703 23.918 18.4817 24 18.3535C23.9873 18.1746 23.6376 13.7126 22.717 10.5497ZM8.74884 14.2285H7.34259V11.8847H8.74884V14.2285ZM16.6574 14.2285H15.2512V11.8847H16.6574V14.2285Z" fill="#DADADA"/>
</g>
<defs>
<clipPath id="clip0_345_3349">
<rect width="24" height="24" fill="white"/>
</clipPath>
</defs>
</svg>
